<svg width="51" height="18" viewBox="0 0 51 18" fill="none" xmlns="http://www.w3.org/2000/svg">
<g opacity="0.5">
<path fill-rule="evenodd" clip-rule="evenodd" d="M0.00634766 6.28693C0.00634766 11.3892 6.044 11.1341 6.97941 11.4742C8.16994 11.8994 8.0849 14.0253 5.3637 14.0253C3.91807 14.0253 2.72754 13.8553 1.36695 13.4301C1.0268 13.345 0.686647 13.175 0.346497 13.0899V16.9166C1.36695 17.4268 4.85348 17.5119 6.29912 17.5119C10.0408 17.5119 13.4423 14.9607 12.5068 11.1341C11.5714 6.96723 6.12904 7.39242 5.3637 6.96723C4.42829 6.54205 4.42829 5.35152 5.44874 4.92634C6.80934 4.33107 9.53054 4.92634 10.8911 5.35152C11.3163 5.5216 11.7415 5.69167 12.0817 5.77671V2.1201C11.4864 1.95003 11.1462 1.77995 9.95572 1.52484C8.25498 1.18469 7.57468 1.18469 5.87393 1.18469C2.81258 1.18469 0.00634766 3.22559 0.00634766 6.28693Z" fill="white"/>
<path fill-rule="evenodd" clip-rule="evenodd" d="M13.6973 2.03507V17.3418H18.1192V12.7498C18.2042 12.9199 18.1192 12.8348 18.2042 13.0049L18.6294 13.7702C18.7995 14.1104 18.9696 14.4505 19.1397 14.8757C19.3097 15.3009 19.82 16.8316 19.82 17.3418H25.1773C25.0923 17.1717 25.0072 16.8316 24.9222 16.5765L23.9017 14.2805C21.7758 9.94355 22.201 12.2396 24.0718 8.58295C24.412 8.07272 25.3474 6.11686 25.4324 5.43656H20.4152C20.2451 6.28694 18.6294 9.09317 18.1192 9.51836V1.18469C17.2688 1.18469 14.3776 2.03507 13.6973 2.03507Z" fill="white"/>
<path fill-rule="evenodd" clip-rule="evenodd" d="M40.1438 1.95003V17.3418H44.3957V1.18469C43.7154 1.18469 41.0792 1.86499 40.1438 1.95003Z" fill="white"/>
<path fill-rule="evenodd" clip-rule="evenodd" d="M46.2668 1.95003V17.3418H50.5187V1.18469C50.0085 1.18469 46.7771 1.95003 46.2668 1.95003Z" fill="white"/>
<path fill-rule="evenodd" clip-rule="evenodd" d="M25.9429 10.5388V17.3418H30.1947V12.2395C30.1947 9.8585 30.5349 8.92309 32.916 8.92309V5.35152C32.1506 5.35152 32.8309 5.26648 31.5553 5.35152C30.2798 5.52159 29.3444 5.52159 27.9838 6.37196C26.7932 7.1373 25.9429 8.58294 25.9429 10.5388Z" fill="white"/>
<path fill-rule="evenodd" clip-rule="evenodd" d="M34.1914 17.3418H38.4433V5.52161H34.1914V17.3418Z" fill="white"/>
<path fill-rule="evenodd" clip-rule="evenodd" d="M34.2766 2.20514C34.2766 2.88544 34.3616 3.31063 34.8719 3.82085C36.7427 5.69167 39.719 2.88544 37.7631 0.844544C36.4876 -0.516054 34.2766 0.674469 34.2766 2.20514Z" fill="white"/>
</g>
</svg>
