<svg width="54" height="18" viewBox="0 0 54 18" fill="none" xmlns="http://www.w3.org/2000/svg">
<g opacity="0.5">
<path fill-rule="evenodd" clip-rule="evenodd" d="M18.6282 17.7553L21.2763 0.980347H25.5682L22.92 17.7553H18.6282Z" fill="white"/>
<path fill-rule="evenodd" clip-rule="evenodd" d="M38.3531 1.37051C37.5313 1.07792 36.2529 0.687805 34.5178 0.687805C30.3173 0.687805 27.3952 2.93097 27.3039 6.24694C27.3039 8.58763 29.4954 9.95304 31.0478 10.7333C32.7828 11.611 33.3307 12.0987 33.3307 12.8789C33.3307 13.9517 31.961 14.4394 30.7739 14.4394C29.0389 14.4394 28.1257 14.2443 26.756 13.5616L26.1167 13.3665L25.5688 17.0726C26.5733 17.5603 28.3997 17.9504 30.3173 17.9504C34.7918 17.9504 37.7139 15.7072 37.8052 12.2937C37.8052 10.3432 36.6181 8.88022 34.1526 7.70988C32.6915 6.92965 31.7784 6.442 31.7784 5.66177C31.7784 4.97907 32.6002 4.19884 34.2439 4.19884C35.6136 4.19884 36.6181 4.49143 37.44 4.78401L37.8052 4.97907L38.3531 1.37051Z" fill="white"/>
<path fill-rule="evenodd" clip-rule="evenodd" d="M49.4021 0.980347H46.0234C45.019 0.980347 44.2884 1.27293 43.8318 2.34575L37.4397 17.7553H41.9142C41.9142 17.7553 42.6447 15.7072 42.8274 15.2195C43.3753 15.2195 47.6671 15.2195 48.3063 15.2195C48.489 15.8047 48.8542 17.7553 48.8542 17.7553H52.7808L49.4021 0.980347ZM44.1058 11.806C44.4711 10.8308 45.7495 7.12466 45.7495 7.12466C45.7495 7.12466 46.1147 6.14937 46.3887 5.46667L46.6626 6.9296C46.6626 6.9296 47.4845 10.9283 47.6671 11.806H44.1058Z" fill="white"/>
<path fill-rule="evenodd" clip-rule="evenodd" d="M14.9755 0.980347L10.8663 12.3912L10.4097 10.0505C9.58784 7.41724 7.21361 4.49138 4.47412 3.02845L8.30941 17.7553H12.7839L19.5413 0.980347H14.9755Z" fill="white"/>
<path fill-rule="evenodd" clip-rule="evenodd" d="M6.94004 0.980347H0.0913163L0 1.37046C5.38766 2.73586 8.949 6.05184 10.4101 10.0505L8.85768 2.44328C8.67505 1.37046 7.8532 0.980347 6.94004 0.980347Z" fill="white"/>
</g>
</svg>
